# xmcd
#
# Track frame offsets:
#	150
#	25145
#	44737
#	65915
#	78235
#	97007
#	115425
#	140497
#	161767
#	179662
#	201447
#
# Disc length: 2909 seconds
#
# Revision: 1
# Processed by: cddbd v1.5.1PL0 Copyright (c) Steve Scherf et al.
# Submitted via: CDex 1.50Beta5
#
DISCID=aa0b5b0b
DTITLE=チューリップ - ベスト・ソングス TULIP〜TULIP BEST COLLECTION 1987-1989〜
DYEAR=1992
DGENRE=
TTITLE0=抱きあって
TTITLE1=愛になりたい
TTITLE2=ストロベリー・スマイル
TTITLE3=Well
TTITLE4=まっ赤な花と水平線
TTITLE5=逢えない愛
TTITLE6=TULIPIANの服を着た君
TTITLE7=モーニング・スコール
TTITLE8=Blue
TTITLE9=Primary Color
TTITLE10=2015年世界旅行
EXTD=
EXTT0=
EXTT1=
EXTT2=
EXTT3=
EXTT4=
EXTT5=
EXTT6=
EXTT7=
EXTT8=
EXTT9=
EXTT10=
PLAYORDER=
